<?xml version="1.0" encoding="UTF-8" standalone="no"?>
<!DOCTYPE svg PUBLIC "-//W3C//DTD SVG 1.1//EN"
 "http://www.w3.org/Graphics/SVG/1.1/DTD/svg11.dtd">
<!-- Generated by graphviz version 2.47.3 (20210619.2315)
 -->
<!-- Title: snakemake_dag Pages: 1 -->
<svg width="357pt" height="332pt"
 viewBox="0.00 0.00 356.89 332.00" xmlns="http://www.w3.org/2000/svg" xmlns:xlink="http://www.w3.org/1999/xlink">
<g id="graph0" class="graph" transform="scale(1 1) rotate(0) translate(4 328)">
<title>snakemake_dag</title>
<polygon fill="white" stroke="transparent" points="-4,4 -4,-328 352.89,-328 352.89,4 -4,4"/>
<!-- 0 -->
<g id="node1" class="node">
<title>0</title>
<path fill="none" stroke="#c6d856" stroke-width="2" d="M115.89,-36C115.89,-36 85.89,-36 85.89,-36 79.89,-36 73.89,-30 73.89,-24 73.89,-24 73.89,-12 73.89,-12 73.89,-6 79.89,0 85.89,0 85.89,0 115.89,0 115.89,0 121.89,0 127.89,-6 127.89,-12 127.89,-12 127.89,-24 127.89,-24 127.89,-30 121.89,-36 115.89,-36"/>
<text text-anchor="middle" x="100.89" y="-15.5" font-family="sans" font-size="10.00">all</text>
</g>
<!-- 1 -->
<g id="node2" class="node">
<title>1</title>
<path fill="none" stroke="#56d8c9" stroke-width="2" d="M210.39,-108C210.39,-108 91.39,-108 91.39,-108 85.39,-108 79.39,-102 79.39,-96 79.39,-96 79.39,-84 79.39,-84 79.39,-78 85.39,-72 91.39,-72 91.39,-72 210.39,-72 210.39,-72 216.39,-72 222.39,-78 222.39,-84 222.39,-84 222.39,-96 222.39,-96 222.39,-102 216.39,-108 210.39,-108"/>
<text text-anchor="middle" x="150.89" y="-87.5" font-family="sans" font-size="10.00">featurecounts_readcounts</text>
</g>
<!-- 1&#45;&gt;0 -->
<g id="edge5" class="edge">
<title>1&#45;&gt;0</title>
<path fill="none" stroke="grey" stroke-width="2" d="M138.53,-71.7C132.65,-63.47 125.52,-53.48 119.05,-44.42"/>
<polygon fill="grey" stroke="grey" stroke-width="2" points="121.77,-42.21 113.11,-36.1 116.07,-46.28 121.77,-42.21"/>
</g>
<!-- 2 -->
<g id="node3" class="node">
<title>2</title>
<path fill="none" stroke="#d85656" stroke-width="2" d="M126.89,-180C126.89,-180 52.89,-180 52.89,-180 46.89,-180 40.89,-174 40.89,-168 40.89,-168 40.89,-156 40.89,-156 40.89,-150 46.89,-144 52.89,-144 52.89,-144 126.89,-144 126.89,-144 132.89,-144 138.89,-150 138.89,-156 138.89,-156 138.89,-168 138.89,-168 138.89,-174 132.89,-180 126.89,-180"/>
<text text-anchor="middle" x="89.89" y="-159.5" font-family="sans" font-size="10.00">bbmap_mapping</text>
</g>
<!-- 2&#45;&gt;0 -->
<g id="edge1" class="edge">
<title>2&#45;&gt;0</title>
<path fill="none" stroke="grey" stroke-width="2" d="M81.06,-143.83C72.97,-125.83 63.18,-96.76 69.89,-72 72.47,-62.48 77.23,-52.92 82.27,-44.59"/>
<polygon fill="grey" stroke="grey" stroke-width="2" points="85.27,-46.39 87.74,-36.09 79.38,-42.6 85.27,-46.39"/>
</g>
<!-- 2&#45;&gt;1 -->
<g id="edge7" class="edge">
<title>2&#45;&gt;1</title>
<path fill="none" stroke="grey" stroke-width="2" d="M104.97,-143.7C112.28,-135.3 121.2,-125.07 129.22,-115.86"/>
<polygon fill="grey" stroke="grey" stroke-width="2" points="132.05,-117.94 135.98,-108.1 126.77,-113.34 132.05,-117.94"/>
</g>
<!-- 3 -->
<g id="node4" class="node">
<title>3</title>
<path fill="none" stroke="#56a2d8" stroke-width="2" d="M132.39,-252C132.39,-252 25.39,-252 25.39,-252 19.39,-252 13.39,-246 13.39,-240 13.39,-240 13.39,-228 13.39,-228 13.39,-222 19.39,-216 25.39,-216 25.39,-216 132.39,-216 132.39,-216 138.39,-216 144.39,-222 144.39,-228 144.39,-228 144.39,-240 144.39,-240 144.39,-246 138.39,-252 132.39,-252"/>
<text text-anchor="middle" x="78.89" y="-231.5" font-family="sans" font-size="10.00">sortmerna_filter_mRNA</text>
</g>
<!-- 3&#45;&gt;0 -->
<g id="edge6" class="edge">
<title>3&#45;&gt;0</title>
<path fill="none" stroke="grey" stroke-width="2" d="M57.62,-215.7C47.78,-206.31 37.12,-193.8 31.89,-180 26.21,-165.04 28.57,-159.65 31.89,-144 39.86,-106.42 63.47,-68.53 80.86,-44.48"/>
<polygon fill="grey" stroke="grey" stroke-width="2" points="83.8,-46.39 86.94,-36.27 78.17,-42.22 83.8,-46.39"/>
</g>
<!-- 3&#45;&gt;2 -->
<g id="edge8" class="edge">
<title>3&#45;&gt;2</title>
<path fill="none" stroke="grey" stroke-width="2" d="M81.61,-215.7C82.82,-207.98 84.28,-198.71 85.63,-190.11"/>
<polygon fill="grey" stroke="grey" stroke-width="2" points="89.1,-190.53 87.2,-180.1 82.19,-189.44 89.1,-190.53"/>
</g>
<!-- 4 -->
<g id="node5" class="node">
<title>4</title>
<path fill="none" stroke="#78d856" stroke-width="2" d="M102.89,-324C102.89,-324 54.89,-324 54.89,-324 48.89,-324 42.89,-318 42.89,-312 42.89,-312 42.89,-300 42.89,-300 42.89,-294 48.89,-288 54.89,-288 54.89,-288 102.89,-288 102.89,-288 108.89,-288 114.89,-294 114.89,-300 114.89,-300 114.89,-312 114.89,-312 114.89,-318 108.89,-324 102.89,-324"/>
<text text-anchor="middle" x="78.89" y="-303.5" font-family="sans" font-size="10.00">bbduk_trim</text>
</g>
<!-- 4&#45;&gt;0 -->
<g id="edge3" class="edge">
<title>4&#45;&gt;0</title>
<path fill="none" stroke="grey" stroke-width="2" d="M42.58,-288.84C27.76,-280.2 12.17,-268 3.89,-252 -3.47,-237.79 1.88,-231.87 3.89,-216 12.18,-150.44 6.38,-128.36 40.89,-72 47.63,-60.98 57.39,-50.97 67.09,-42.7"/>
<polygon fill="grey" stroke="grey" stroke-width="2" points="69.58,-45.18 75.15,-36.17 65.18,-39.75 69.58,-45.18"/>
</g>
<!-- 4&#45;&gt;3 -->
<g id="edge9" class="edge">
<title>4&#45;&gt;3</title>
<path fill="none" stroke="grey" stroke-width="2" d="M78.89,-287.7C78.89,-279.98 78.89,-270.71 78.89,-262.11"/>
<polygon fill="grey" stroke="grey" stroke-width="2" points="82.39,-262.1 78.89,-252.1 75.39,-262.1 82.39,-262.1"/>
</g>
<!-- 6 -->
<g id="node7" class="node">
<title>6</title>
<path fill="none" stroke="#56d87b" stroke-width="2" d="M245.89,-180C245.89,-180 197.89,-180 197.89,-180 191.89,-180 185.89,-174 185.89,-168 185.89,-168 185.89,-156 185.89,-156 185.89,-150 191.89,-144 197.89,-144 197.89,-144 245.89,-144 245.89,-144 251.89,-144 257.89,-150 257.89,-156 257.89,-156 257.89,-168 257.89,-168 257.89,-174 251.89,-180 245.89,-180"/>
<text text-anchor="middle" x="221.89" y="-159.5" font-family="sans" font-size="10.00">fastqc_trim</text>
</g>
<!-- 4&#45;&gt;6 -->
<g id="edge10" class="edge">
<title>4&#45;&gt;6</title>
<path fill="none" stroke="grey" stroke-width="2" d="M106.72,-287.86C121.26,-278.24 138.89,-265.48 152.89,-252 172.95,-232.69 192.05,-207.31 205.04,-188.6"/>
<polygon fill="grey" stroke="grey" stroke-width="2" points="207.99,-190.49 210.74,-180.26 202.21,-186.54 207.99,-190.49"/>
</g>
<!-- 5 -->
<g id="node6" class="node">
<title>5</title>
<path fill="none" stroke="#d8a456" stroke-width="2" d="M336.89,-108C336.89,-108 290.89,-108 290.89,-108 284.89,-108 278.89,-102 278.89,-96 278.89,-96 278.89,-84 278.89,-84 278.89,-78 284.89,-72 290.89,-72 290.89,-72 336.89,-72 336.89,-72 342.89,-72 348.89,-78 348.89,-84 348.89,-84 348.89,-96 348.89,-96 348.89,-102 342.89,-108 336.89,-108"/>
<text text-anchor="middle" x="313.89" y="-87.5" font-family="sans" font-size="10.00">fastqc_raw</text>
</g>
<!-- 5&#45;&gt;0 -->
<g id="edge2" class="edge">
<title>5&#45;&gt;0</title>
<path fill="none" stroke="grey" stroke-width="2" d="M278.85,-76.74C274.16,-75.13 269.41,-73.52 264.89,-72 221.31,-57.4 170.98,-41.24 137.69,-30.65"/>
<polygon fill="grey" stroke="grey" stroke-width="2" points="138.52,-27.24 127.93,-27.55 136.4,-33.91 138.52,-27.24"/>
</g>
<!-- 6&#45;&gt;0 -->
<g id="edge4" class="edge">
<title>6&#45;&gt;0</title>
<path fill="none" stroke="grey" stroke-width="2" d="M229.78,-143.67C237.22,-124.47 245.27,-93.4 230.89,-72 210.3,-41.38 168.6,-28.44 137.96,-22.98"/>
<polygon fill="grey" stroke="grey" stroke-width="2" points="138.46,-19.51 128.04,-21.4 137.36,-26.43 138.46,-19.51"/>
</g>
</g>
</svg>
