<?xml version="1.0" encoding="UTF-8" standalone="no"?>
<!DOCTYPE svg PUBLIC "-//W3C//DTD SVG 1.1//EN"
 "http://www.w3.org/Graphics/SVG/1.1/DTD/svg11.dtd">
<!-- Generated by graphviz version 2.47.3 (20210619.2315)
 -->
<!-- Title: snakemake_dag Pages: 1 -->
<svg width="1172pt" height="337pt"
 viewBox="0.00 0.00 1172.00 337.00" xmlns="http://www.w3.org/2000/svg" xmlns:xlink="http://www.w3.org/1999/xlink">
<g id="graph0" class="graph" transform="scale(1 1) rotate(0) translate(4 333)">
<title>snakemake_dag</title>
<polygon fill="white" stroke="transparent" points="-4,4 -4,-333 1168,-333 1168,4 -4,4"/>
<!-- 0 -->
<g id="node1" class="node">
<title>0</title>
<path fill="none" stroke="#56a2d8" stroke-width="2" d="M589,-36C589,-36 559,-36 559,-36 553,-36 547,-30 547,-24 547,-24 547,-12 547,-12 547,-6 553,0 559,0 559,0 589,0 589,0 595,0 601,-6 601,-12 601,-12 601,-24 601,-24 601,-30 595,-36 589,-36"/>
<text text-anchor="middle" x="574" y="-15.5" font-family="sans" font-size="10.00">all</text>
</g>
<!-- 1 -->
<g id="node2" class="node">
<title>1</title>
<path fill="none" stroke="#d8a456" stroke-width="2" d="M464.5,-110.5C464.5,-110.5 345.5,-110.5 345.5,-110.5 339.5,-110.5 333.5,-104.5 333.5,-98.5 333.5,-98.5 333.5,-86.5 333.5,-86.5 333.5,-80.5 339.5,-74.5 345.5,-74.5 345.5,-74.5 464.5,-74.5 464.5,-74.5 470.5,-74.5 476.5,-80.5 476.5,-86.5 476.5,-86.5 476.5,-98.5 476.5,-98.5 476.5,-104.5 470.5,-110.5 464.5,-110.5"/>
<text text-anchor="middle" x="405" y="-90" font-family="sans" font-size="10.00">featurecounts_readcounts</text>
</g>
<!-- 1&#45;&gt;0 -->
<g id="edge1" class="edge">
<title>1&#45;&gt;0</title>
<path fill="none" stroke="grey" stroke-width="2" d="M445.05,-74.32C473.04,-62.31 510.13,-46.4 537.35,-34.72"/>
<polygon fill="grey" stroke="grey" stroke-width="2" points="539.08,-37.79 546.89,-30.63 536.32,-31.36 539.08,-37.79"/>
</g>
<!-- 2 -->
<g id="node3" class="node">
<title>2</title>
<path fill="none" stroke="#56d87b" stroke-width="2" d="M304,-185C304,-185 230,-185 230,-185 224,-185 218,-179 218,-173 218,-173 218,-161 218,-161 218,-155 224,-149 230,-149 230,-149 304,-149 304,-149 310,-149 316,-155 316,-161 316,-161 316,-173 316,-173 316,-179 310,-185 304,-185"/>
<text text-anchor="middle" x="267" y="-164.5" font-family="sans" font-size="10.00">bbmap_mapping</text>
</g>
<!-- 2&#45;&gt;0 -->
<g id="edge2" class="edge">
<title>2&#45;&gt;0</title>
<path fill="none" stroke="grey" stroke-width="2" d="M266.23,-148.68C266.29,-127.43 269.86,-91.81 291,-72 326.05,-39.15 468.01,-25.75 536.58,-21.11"/>
<polygon fill="grey" stroke="grey" stroke-width="2" points="537.17,-24.58 546.92,-20.44 536.72,-17.6 537.17,-24.58"/>
</g>
<!-- 2&#45;&gt;1 -->
<g id="edge16" class="edge">
<title>2&#45;&gt;1</title>
<path fill="none" stroke="grey" stroke-width="2" d="M299.7,-148.82C318.78,-138.8 343.03,-126.06 363.45,-115.33"/>
<polygon fill="grey" stroke="grey" stroke-width="2" points="365.31,-118.31 372.53,-110.56 362.05,-112.11 365.31,-118.31"/>
</g>
<!-- 3 -->
<g id="node4" class="node">
<title>3</title>
<path fill="none" stroke="#d85656" stroke-width="2" d="M273.5,-257C273.5,-257 166.5,-257 166.5,-257 160.5,-257 154.5,-251 154.5,-245 154.5,-245 154.5,-233 154.5,-233 154.5,-227 160.5,-221 166.5,-221 166.5,-221 273.5,-221 273.5,-221 279.5,-221 285.5,-227 285.5,-233 285.5,-233 285.5,-245 285.5,-245 285.5,-251 279.5,-257 273.5,-257"/>
<text text-anchor="middle" x="220" y="-236.5" font-family="sans" font-size="10.00">sortmerna_filter_mRNA</text>
</g>
<!-- 3&#45;&gt;0 -->
<g id="edge4" class="edge">
<title>3&#45;&gt;0</title>
<path fill="none" stroke="grey" stroke-width="2" d="M213.55,-220.84C207.68,-202.59 201.05,-173.1 209,-149 222.34,-108.56 229.74,-94.33 266,-72 310.82,-44.4 464.65,-28.19 536.48,-21.96"/>
<polygon fill="grey" stroke="grey" stroke-width="2" points="537.2,-25.41 546.87,-21.08 536.61,-18.44 537.2,-25.41"/>
</g>
<!-- 3&#45;&gt;2 -->
<g id="edge18" class="edge">
<title>3&#45;&gt;2</title>
<path fill="none" stroke="grey" stroke-width="2" d="M231.62,-220.7C237.14,-212.47 243.85,-202.48 249.93,-193.42"/>
<polygon fill="grey" stroke="grey" stroke-width="2" points="252.85,-195.36 255.52,-185.1 247.04,-191.46 252.85,-195.36"/>
</g>
<!-- 4 -->
<g id="node5" class="node">
<title>4</title>
<path fill="none" stroke="#c6d856" stroke-width="2" d="M201.5,-329C201.5,-329 144.5,-329 144.5,-329 138.5,-329 132.5,-323 132.5,-317 132.5,-317 132.5,-305 132.5,-305 132.5,-299 138.5,-293 144.5,-293 144.5,-293 201.5,-293 201.5,-293 207.5,-293 213.5,-299 213.5,-305 213.5,-305 213.5,-317 213.5,-317 213.5,-323 207.5,-329 201.5,-329"/>
<text text-anchor="middle" x="173" y="-314" font-family="sans" font-size="10.00">bbduk_trim</text>
<text text-anchor="middle" x="173" y="-303" font-family="sans" font-size="10.00">sample: Nd.1</text>
</g>
<!-- 4&#45;&gt;0 -->
<g id="edge6" class="edge">
<title>4&#45;&gt;0</title>
<path fill="none" stroke="grey" stroke-width="2" d="M213.63,-300.48C239.48,-292.6 272.1,-279.04 294,-257 318.56,-232.29 317.97,-219.12 325,-185 331.46,-153.66 324.44,-145 324,-113 323.75,-94.78 312.53,-86.16 324,-72 350.34,-39.49 473.54,-26.12 536.6,-21.33"/>
<polygon fill="grey" stroke="grey" stroke-width="2" points="537.19,-24.79 546.91,-20.58 536.69,-17.81 537.19,-24.79"/>
</g>
<!-- 4&#45;&gt;3 -->
<g id="edge19" class="edge">
<title>4&#45;&gt;3</title>
<path fill="none" stroke="grey" stroke-width="2" d="M184.62,-292.7C190.14,-284.47 196.85,-274.48 202.93,-265.42"/>
<polygon fill="grey" stroke="grey" stroke-width="2" points="205.85,-267.36 208.52,-257.1 200.04,-263.46 205.85,-267.36"/>
</g>
<!-- 12 -->
<g id="node13" class="node">
<title>12</title>
<path fill="none" stroke="#78d856" stroke-width="2" d="M60,-185C60,-185 12,-185 12,-185 6,-185 0,-179 0,-173 0,-173 0,-161 0,-161 0,-155 6,-149 12,-149 12,-149 60,-149 60,-149 66,-149 72,-155 72,-161 72,-161 72,-173 72,-173 72,-179 66,-185 60,-185"/>
<text text-anchor="middle" x="36" y="-170" font-family="sans" font-size="10.00">fastqc_trim</text>
<text text-anchor="middle" x="36" y="-159" font-family="sans" font-size="10.00">pair: R1</text>
</g>
<!-- 4&#45;&gt;12 -->
<g id="edge22" class="edge">
<title>4&#45;&gt;12</title>
<path fill="none" stroke="grey" stroke-width="2" d="M156.47,-292.87C132.3,-267.82 87.18,-221.05 59.55,-192.41"/>
<polygon fill="grey" stroke="grey" stroke-width="2" points="62.05,-189.96 52.58,-185.19 57.01,-194.82 62.05,-189.96"/>
</g>
<!-- 13 -->
<g id="node14" class="node">
<title>13</title>
<path fill="none" stroke="#78d856" stroke-width="2" d="M150,-185C150,-185 102,-185 102,-185 96,-185 90,-179 90,-173 90,-173 90,-161 90,-161 90,-155 96,-149 102,-149 102,-149 150,-149 150,-149 156,-149 162,-155 162,-161 162,-161 162,-173 162,-173 162,-179 156,-185 150,-185"/>
<text text-anchor="middle" x="126" y="-170" font-family="sans" font-size="10.00">fastqc_trim</text>
<text text-anchor="middle" x="126" y="-159" font-family="sans" font-size="10.00">pair: R2</text>
</g>
<!-- 4&#45;&gt;13 -->
<g id="edge23" class="edge">
<title>4&#45;&gt;13</title>
<path fill="none" stroke="grey" stroke-width="2" d="M162.41,-292.89C156.54,-282.77 149.54,-269.52 145,-257 137.69,-236.86 132.79,-213.08 129.8,-195.17"/>
<polygon fill="grey" stroke="grey" stroke-width="2" points="133.23,-194.45 128.22,-185.12 126.32,-195.54 133.23,-194.45"/>
</g>
<!-- 5 -->
<g id="node6" class="node">
<title>5</title>
<path fill="none" stroke="#56d87b" stroke-width="2" d="M542,-185C542,-185 468,-185 468,-185 462,-185 456,-179 456,-173 456,-173 456,-161 456,-161 456,-155 462,-149 468,-149 468,-149 542,-149 542,-149 548,-149 554,-155 554,-161 554,-161 554,-173 554,-173 554,-179 548,-185 542,-185"/>
<text text-anchor="middle" x="505" y="-164.5" font-family="sans" font-size="10.00">bbmap_mapping</text>
</g>
<!-- 5&#45;&gt;0 -->
<g id="edge3" class="edge">
<title>5&#45;&gt;0</title>
<path fill="none" stroke="grey" stroke-width="2" d="M505.66,-148.77C507.02,-129.17 511.21,-96.69 524,-72 529.43,-61.51 537.56,-51.62 545.69,-43.28"/>
<polygon fill="grey" stroke="grey" stroke-width="2" points="548.35,-45.58 553.08,-36.1 543.47,-40.56 548.35,-45.58"/>
</g>
<!-- 5&#45;&gt;1 -->
<g id="edge17" class="edge">
<title>5&#45;&gt;1</title>
<path fill="none" stroke="grey" stroke-width="2" d="M481.3,-148.82C467.98,-139.16 451.17,-126.97 436.72,-116.5"/>
<polygon fill="grey" stroke="grey" stroke-width="2" points="438.68,-113.59 428.53,-110.56 434.57,-119.26 438.68,-113.59"/>
</g>
<!-- 6 -->
<g id="node7" class="node">
<title>6</title>
<path fill="none" stroke="#d85656" stroke-width="2" d="M933.5,-257C933.5,-257 826.5,-257 826.5,-257 820.5,-257 814.5,-251 814.5,-245 814.5,-245 814.5,-233 814.5,-233 814.5,-227 820.5,-221 826.5,-221 826.5,-221 933.5,-221 933.5,-221 939.5,-221 945.5,-227 945.5,-233 945.5,-233 945.5,-245 945.5,-245 945.5,-251 939.5,-257 933.5,-257"/>
<text text-anchor="middle" x="880" y="-236.5" font-family="sans" font-size="10.00">sortmerna_filter_mRNA</text>
</g>
<!-- 6&#45;&gt;0 -->
<g id="edge5" class="edge">
<title>6&#45;&gt;0</title>
<path fill="none" stroke="grey" stroke-width="2" d="M892.03,-220.9C913.56,-188 953.13,-115.33 916,-72 877.04,-26.54 691.46,-19.74 611.16,-18.96"/>
<polygon fill="grey" stroke="grey" stroke-width="2" points="611.03,-15.46 601.01,-18.89 610.98,-22.46 611.03,-15.46"/>
</g>
<!-- 6&#45;&gt;5 -->
<g id="edge20" class="edge">
<title>6&#45;&gt;5</title>
<path fill="none" stroke="grey" stroke-width="2" d="M814.25,-225.73C743.62,-212.54 632.39,-191.78 564.34,-179.08"/>
<polygon fill="grey" stroke="grey" stroke-width="2" points="564.68,-175.58 554.21,-177.19 563.4,-182.46 564.68,-175.58"/>
</g>
<!-- 7 -->
<g id="node8" class="node">
<title>7</title>
<path fill="none" stroke="#c6d856" stroke-width="2" d="M1033.5,-329C1033.5,-329 978.5,-329 978.5,-329 972.5,-329 966.5,-323 966.5,-317 966.5,-317 966.5,-305 966.5,-305 966.5,-299 972.5,-293 978.5,-293 978.5,-293 1033.5,-293 1033.5,-293 1039.5,-293 1045.5,-299 1045.5,-305 1045.5,-305 1045.5,-317 1045.5,-317 1045.5,-323 1039.5,-329 1033.5,-329"/>
<text text-anchor="middle" x="1006" y="-314" font-family="sans" font-size="10.00">bbduk_trim</text>
<text text-anchor="middle" x="1006" y="-303" font-family="sans" font-size="10.00">sample: La.1</text>
</g>
<!-- 7&#45;&gt;0 -->
<g id="edge7" class="edge">
<title>7&#45;&gt;0</title>
<path fill="none" stroke="grey" stroke-width="2" d="M1001.62,-292.75C987.97,-239.29 946.61,-79.53 938,-72 889.87,-29.91 694.36,-21.24 611.45,-19.46"/>
<polygon fill="grey" stroke="grey" stroke-width="2" points="611.29,-15.95 601.22,-19.26 611.15,-22.95 611.29,-15.95"/>
</g>
<!-- 7&#45;&gt;6 -->
<g id="edge21" class="edge">
<title>7&#45;&gt;6</title>
<path fill="none" stroke="grey" stroke-width="2" d="M975.18,-292.88C958.55,-283.64 937.84,-272.13 919.98,-262.21"/>
<polygon fill="grey" stroke="grey" stroke-width="2" points="921.38,-258.99 910.94,-257.19 917.98,-265.11 921.38,-258.99"/>
</g>
<!-- 14 -->
<g id="node15" class="node">
<title>14</title>
<path fill="none" stroke="#78d856" stroke-width="2" d="M1062,-257C1062,-257 1014,-257 1014,-257 1008,-257 1002,-251 1002,-245 1002,-245 1002,-233 1002,-233 1002,-227 1008,-221 1014,-221 1014,-221 1062,-221 1062,-221 1068,-221 1074,-227 1074,-233 1074,-233 1074,-245 1074,-245 1074,-251 1068,-257 1062,-257"/>
<text text-anchor="middle" x="1038" y="-242" font-family="sans" font-size="10.00">fastqc_trim</text>
<text text-anchor="middle" x="1038" y="-231" font-family="sans" font-size="10.00">pair: R1</text>
</g>
<!-- 7&#45;&gt;14 -->
<g id="edge24" class="edge">
<title>7&#45;&gt;14</title>
<path fill="none" stroke="grey" stroke-width="2" d="M1013.91,-292.7C1017.55,-284.73 1021.95,-275.1 1025.99,-266.26"/>
<polygon fill="grey" stroke="grey" stroke-width="2" points="1029.21,-267.65 1030.18,-257.1 1022.84,-264.74 1029.21,-267.65"/>
</g>
<!-- 15 -->
<g id="node16" class="node">
<title>15</title>
<path fill="none" stroke="#78d856" stroke-width="2" d="M1152,-257C1152,-257 1104,-257 1104,-257 1098,-257 1092,-251 1092,-245 1092,-245 1092,-233 1092,-233 1092,-227 1098,-221 1104,-221 1104,-221 1152,-221 1152,-221 1158,-221 1164,-227 1164,-233 1164,-233 1164,-245 1164,-245 1164,-251 1158,-257 1152,-257"/>
<text text-anchor="middle" x="1128" y="-242" font-family="sans" font-size="10.00">fastqc_trim</text>
<text text-anchor="middle" x="1128" y="-231" font-family="sans" font-size="10.00">pair: R2</text>
</g>
<!-- 7&#45;&gt;15 -->
<g id="edge25" class="edge">
<title>7&#45;&gt;15</title>
<path fill="none" stroke="grey" stroke-width="2" d="M1035.84,-292.88C1051.94,-283.64 1072,-272.13 1089.29,-262.21"/>
<polygon fill="grey" stroke="grey" stroke-width="2" points="1091.11,-265.2 1098.04,-257.19 1087.63,-259.13 1091.11,-265.2"/>
</g>
<!-- 8 -->
<g id="node9" class="node">
<title>8</title>
<path fill="none" stroke="#56d8c9" stroke-width="2" stroke-dasharray="5,2" d="M602.5,-113C602.5,-113 545.5,-113 545.5,-113 539.5,-113 533.5,-107 533.5,-101 533.5,-101 533.5,-84 533.5,-84 533.5,-78 539.5,-72 545.5,-72 545.5,-72 602.5,-72 602.5,-72 608.5,-72 614.5,-78 614.5,-84 614.5,-84 614.5,-101 614.5,-101 614.5,-107 608.5,-113 602.5,-113"/>
<text text-anchor="middle" x="574" y="-101" font-family="sans" font-size="10.00">fastqc_raw</text>
<text text-anchor="middle" x="574" y="-90" font-family="sans" font-size="10.00">pair: R1</text>
<text text-anchor="middle" x="574" y="-79" font-family="sans" font-size="10.00">sample: Nd.1</text>
</g>
<!-- 8&#45;&gt;0 -->
<g id="edge8" class="edge">
<title>8&#45;&gt;0</title>
<path fill="none" stroke="grey" stroke-width="2" d="M574,-71.69C574,-63.91 574,-54.84 574,-46.45"/>
<polygon fill="grey" stroke="grey" stroke-width="2" points="577.5,-46.32 574,-36.32 570.5,-46.32 577.5,-46.32"/>
</g>
<!-- 9 -->
<g id="node10" class="node">
<title>9</title>
<path fill="none" stroke="#56d8c9" stroke-width="2" stroke-dasharray="5,2" d="M701.5,-113C701.5,-113 644.5,-113 644.5,-113 638.5,-113 632.5,-107 632.5,-101 632.5,-101 632.5,-84 632.5,-84 632.5,-78 638.5,-72 644.5,-72 644.5,-72 701.5,-72 701.5,-72 707.5,-72 713.5,-78 713.5,-84 713.5,-84 713.5,-101 713.5,-101 713.5,-107 707.5,-113 701.5,-113"/>
<text text-anchor="middle" x="673" y="-101" font-family="sans" font-size="10.00">fastqc_raw</text>
<text text-anchor="middle" x="673" y="-90" font-family="sans" font-size="10.00">pair: R2</text>
<text text-anchor="middle" x="673" y="-79" font-family="sans" font-size="10.00">sample: Nd.1</text>
</g>
<!-- 9&#45;&gt;0 -->
<g id="edge9" class="edge">
<title>9&#45;&gt;0</title>
<path fill="none" stroke="grey" stroke-width="2" d="M646.21,-71.88C633.71,-62.73 618.75,-51.77 605.7,-42.21"/>
<polygon fill="grey" stroke="grey" stroke-width="2" points="607.58,-39.25 597.44,-36.17 603.44,-44.9 607.58,-39.25"/>
</g>
<!-- 10 -->
<g id="node11" class="node">
<title>10</title>
<path fill="none" stroke="#56d8c9" stroke-width="2" stroke-dasharray="5,2" d="M798.5,-113C798.5,-113 743.5,-113 743.5,-113 737.5,-113 731.5,-107 731.5,-101 731.5,-101 731.5,-84 731.5,-84 731.5,-78 737.5,-72 743.5,-72 743.5,-72 798.5,-72 798.5,-72 804.5,-72 810.5,-78 810.5,-84 810.5,-84 810.5,-101 810.5,-101 810.5,-107 804.5,-113 798.5,-113"/>
<text text-anchor="middle" x="771" y="-101" font-family="sans" font-size="10.00">fastqc_raw</text>
<text text-anchor="middle" x="771" y="-90" font-family="sans" font-size="10.00">pair: R1</text>
<text text-anchor="middle" x="771" y="-79" font-family="sans" font-size="10.00">sample: La.1</text>
</g>
<!-- 10&#45;&gt;0 -->
<g id="edge10" class="edge">
<title>10&#45;&gt;0</title>
<path fill="none" stroke="grey" stroke-width="2" d="M731.47,-75.63C728.27,-74.39 725.08,-73.17 722,-72 684.27,-57.74 640.78,-42.28 610.75,-31.76"/>
<polygon fill="grey" stroke="grey" stroke-width="2" points="611.7,-28.39 601.11,-28.39 609.39,-34.99 611.7,-28.39"/>
</g>
<!-- 11 -->
<g id="node12" class="node">
<title>11</title>
<path fill="none" stroke="#56d8c9" stroke-width="2" stroke-dasharray="5,2" d="M895.5,-113C895.5,-113 840.5,-113 840.5,-113 834.5,-113 828.5,-107 828.5,-101 828.5,-101 828.5,-84 828.5,-84 828.5,-78 834.5,-72 840.5,-72 840.5,-72 895.5,-72 895.5,-72 901.5,-72 907.5,-78 907.5,-84 907.5,-84 907.5,-101 907.5,-101 907.5,-107 901.5,-113 895.5,-113"/>
<text text-anchor="middle" x="868" y="-101" font-family="sans" font-size="10.00">fastqc_raw</text>
<text text-anchor="middle" x="868" y="-90" font-family="sans" font-size="10.00">pair: R2</text>
<text text-anchor="middle" x="868" y="-79" font-family="sans" font-size="10.00">sample: La.1</text>
</g>
<!-- 11&#45;&gt;0 -->
<g id="edge11" class="edge">
<title>11&#45;&gt;0</title>
<path fill="none" stroke="grey" stroke-width="2" d="M828.35,-75.08C825.21,-73.98 822.07,-72.93 819,-72 746.67,-49.95 659.66,-33.42 611.22,-25.07"/>
<polygon fill="grey" stroke="grey" stroke-width="2" points="611.65,-21.59 601.2,-23.36 610.47,-28.49 611.65,-21.59"/>
</g>
<!-- 12&#45;&gt;0 -->
<g id="edge12" class="edge">
<title>12&#45;&gt;0</title>
<path fill="none" stroke="grey" stroke-width="2" d="M49.48,-148.66C67.66,-126.7 102.23,-89.59 141,-72 211.4,-40.05 444.92,-25.35 536.59,-20.71"/>
<polygon fill="grey" stroke="grey" stroke-width="2" points="536.98,-24.19 546.8,-20.2 536.64,-17.2 536.98,-24.19"/>
</g>
<!-- 13&#45;&gt;0 -->
<g id="edge13" class="edge">
<title>13&#45;&gt;0</title>
<path fill="none" stroke="grey" stroke-width="2" d="M129.97,-148.89C135.98,-127.18 149.59,-90.35 176,-72 233.97,-31.73 449.3,-22.01 536.74,-19.7"/>
<polygon fill="grey" stroke="grey" stroke-width="2" points="536.83,-23.2 546.75,-19.45 536.66,-16.2 536.83,-23.2"/>
</g>
<!-- 14&#45;&gt;0 -->
<g id="edge14" class="edge">
<title>14&#45;&gt;0</title>
<path fill="none" stroke="grey" stroke-width="2" d="M1038.47,-220.94C1038.38,-186.79 1032.9,-110.03 988,-72 931.56,-24.19 701.82,-18.93 611.1,-18.76"/>
<polygon fill="grey" stroke="grey" stroke-width="2" points="611,-15.26 601,-18.76 611,-22.26 611,-15.26"/>
</g>
<!-- 15&#45;&gt;0 -->
<g id="edge15" class="edge">
<title>15&#45;&gt;0</title>
<path fill="none" stroke="grey" stroke-width="2" d="M1122.11,-220.77C1109.22,-185.96 1074.92,-107.53 1017,-72 949.21,-30.42 705.16,-21.44 611.22,-19.52"/>
<polygon fill="grey" stroke="grey" stroke-width="2" points="611.11,-16.02 601.05,-19.33 610.98,-23.02 611.11,-16.02"/>
</g>
</g>
</svg>
